<svg width="28" height="28" viewBox="0 0 28 28" fill="none" xmlns="http://www.w3.org/2000/svg">
<path d="M0.666016 14C0.666016 6.6362 6.63555 0.666664 13.9993 0.666664C21.3631 0.666664 27.3327 6.6362 27.3327 14C27.3327 21.3638 21.3631 27.3333 13.9993 27.3333C6.63555 27.3333 0.666016 21.3638 0.666016 14Z" fill="#121212"/>
<path d="M7.41056 19.6668V8.65879H12.3386L13.3466 12.5308C13.3892 12.6695 13.4479 12.8988 13.5226 13.2188C13.6079 13.5388 13.6932 13.8855 13.7786 14.2588C13.8746 14.6321 13.9599 14.9788 14.0346 15.2988H14.1626C14.2159 15.0641 14.2799 14.7868 14.3546 14.4668C14.4399 14.1361 14.5252 13.8001 14.6106 13.4588C14.6959 13.1175 14.7706 12.8081 14.8346 12.5308L15.8426 8.65879H20.5946V19.6668H17.2186V15.6988C17.2186 15.2721 17.2186 14.8348 17.2186 14.3868C17.2292 13.9281 17.2346 13.4961 17.2346 13.0908C17.2452 12.6855 17.2506 12.3495 17.2506 12.0828H17.1226C17.0906 12.2961 17.0426 12.5468 16.9786 12.8348C16.9252 13.1228 16.8666 13.4108 16.8026 13.6988C16.7386 13.9761 16.6746 14.2215 16.6106 14.4348L15.1866 19.6668H12.5466L11.1066 14.4348C11.0532 14.2215 10.9892 13.9761 10.9146 13.6988C10.8506 13.4108 10.7919 13.1228 10.7386 12.8348C10.6852 12.5468 10.6372 12.3015 10.5946 12.0988H10.4666C10.4772 12.3655 10.4879 12.7015 10.4986 13.1068C10.5092 13.5121 10.5146 13.9388 10.5146 14.3868C10.5252 14.8348 10.5306 15.2721 10.5306 15.6988V19.6668H7.41056Z" fill="#FFBA49"/>
</svg>
