<svg width="30" height="32" viewBox="0 0 30 32" fill="none" xmlns="http://www.w3.org/2000/svg">

  <!-- 1. Main background shape (yellow fill) -->
  <path 
  id="logo-bg"
    d="M10.807 20.5374H5.14824V0H29.6V20.5354H17.6548L10.807 26.9553V20.5374Z" 
    fill="#FFBA49"
  />

  <!-- 2. Outer border / outline details -->
  <path 
  id="logo-outline"
    d="M29.5998 0V20.5352H17.6545L10.8068 26.9555V20.5375H5.14824V0H29.5998ZM11.8771 24.4852L17.2318 19.4656H28.5303V1.07031H6.21855V19.4672H11.8771V24.4852Z" 
    fill="#121212"
  />

  <!-- 3. Left side extension / base connector -->
  <path 
  id="logo-side"
  
    d="M5.1483 20.5374H10.807V26.9553L5.65872 32V25.5821H0V5.04471L5.1483 0V20.5374Z" 
    fill="#121212"
  />

  <!-- 4. Bottom connector / shadow piece -->
  <path 
  id="logo-bottom"
    d="M12.2631 25.5795H24.4517L29.6 20.5348H17.6548L12.2631 25.5795Z" 
    fill="#121212"
  />

  <!-- 5. Inner "S-like" glyph (text-ish symbol in the middle) -->
  <path 
  id="logo-glyph"
    d="M19.0967 8.45182C19.0004 7.49555 18.7694 6.25688 17.0044 6.25688C15.708 6.25688 15.0855 6.90509 15.0855 7.78435C15.0855 10.4478 21.2403 7.7651 21.2403 12.5914C21.2403 14.8313 19.501 16.1662 17.0044 16.1662C13.8853 16.1662 12.5696 14.2344 12.8328 12.3796H14.8801C14.9635 13.6311 15.124 14.7029 17.075 14.7029C18.6667 14.7029 19.2186 13.9263 19.2186 13.0792C19.2186 10.2681 13.051 12.8674 13.051 8.04749C13.051 6.19912 14.5913 4.8 16.9659 4.8C19.9695 4.8 21.221 6.35957 21.0606 8.45182H19.1095H19.0967Z" 
    fill="#121212"
  />
</svg>


