<svg width="32" height="32" viewBox="0 0 32 32" fill="none" xmlns="http://www.w3.org/2000/svg">
<path d="M16 32C24.8366 32 32 24.8366 32 16C32 7.16344 24.8366 0 16 0C7.16344 0 0 7.16344 0 16C0 24.8366 7.16344 32 16 32Z" fill="#FF4500"/>
<path d="M26.643 16.1527C26.643 14.8557 25.5941 13.8256 24.3158 13.8256C23.712 13.8248 23.1312 14.0572 22.6946 14.4742C21.0923 13.3296 18.8986 12.5859 16.4571 12.4905L17.5251 7.49285L20.9967 8.2366C21.0351 9.1141 21.7597 9.81998 22.6565 9.81998C23.572 9.81998 24.3158 9.07623 24.3158 8.16023C24.3158 7.24473 23.5721 6.50085 22.6565 6.50085C22.008 6.50085 21.4355 6.88235 21.1685 7.4356L17.2965 6.61535C17.182 6.5961 17.0675 6.61535 16.9911 6.6726C16.8957 6.72985 16.8386 6.8251 16.8197 6.9396L15.6367 12.5094C13.1571 12.5859 10.9252 13.3296 9.30397 14.4934C8.8673 14.0763 8.28644 13.844 7.68259 13.8449C6.38547 13.8449 5.35547 14.8937 5.35547 16.172C5.35547 17.1256 5.92759 17.9266 6.72897 18.2894C6.69005 18.5226 6.6709 18.7587 6.67172 18.9951C6.67172 22.5809 10.8492 25.4996 15.9993 25.4996C21.1496 25.4996 25.3271 22.6001 25.3271 18.9951C25.3271 18.7587 25.308 18.5227 25.2698 18.2894C26.0708 17.9266 26.643 17.1064 26.643 16.1527ZM10.6582 17.8121C10.6582 16.8966 11.402 16.1527 12.318 16.1527C13.2335 16.1527 13.9773 16.8965 13.9773 17.8121C13.9773 18.7277 13.2336 19.4719 12.318 19.4719C11.4021 19.4906 10.6582 18.7277 10.6582 17.8121ZM19.9478 22.2185C18.8033 23.3631 16.6287 23.4395 15.9993 23.4395C15.3508 23.4395 13.1763 23.3439 12.0506 22.2185C11.8792 22.0469 11.8792 21.7797 12.0506 21.6081C12.2223 21.4367 12.4893 21.4367 12.6611 21.6081C13.3861 22.3331 14.9121 22.5809 15.9993 22.5809C17.0866 22.5809 18.6316 22.333 19.3373 21.6081C19.5091 21.4367 19.7761 21.4367 19.9478 21.6081C20.1003 21.7797 20.1003 22.0469 19.9478 22.2185ZM19.6425 19.4907C18.7268 19.4907 17.9831 18.747 17.9831 17.8314C17.9831 16.9157 18.7268 16.172 19.6425 16.172C20.5583 16.172 21.3021 16.9157 21.3021 17.8314C21.3021 18.7276 20.5583 19.4907 19.6425 19.4907Z" fill="white"/>
</svg>
