<svg width="32" height="33" viewBox="0 0 32 33" fill="none" xmlns="http://www.w3.org/2000/svg">
<path d="M16 32C24.8366 32 32 24.8366 32 16C32 7.16344 24.8366 0 16 0C7.16344 0 0 7.16344 0 16C0 24.8366 7.16344 32 16 32Z" fill="#FF0000"/>
<path d="M21.7483 10H10.4398C9.98792 10 9.54043 10.089 9.12295 10.2621C8.70546 10.4351 8.32615 10.6886 8.0067 11.0083C7.68725 11.328 7.43392 11.7074 7.26119 12.125C7.08846 12.5426 6.9997 12.9902 7 13.4421V19.5579C6.9997 20.0098 7.08846 20.4574 7.26119 20.875C7.43392 21.2926 7.68725 21.672 8.0067 21.9917C8.32615 22.3114 8.70546 22.5649 9.12295 22.7379C9.54043 22.911 9.98792 23 10.4398 23H21.7483C22.2003 23 22.6477 22.911 23.0652 22.7379C23.4827 22.5649 23.862 22.3114 24.1815 21.9917C24.5009 21.672 24.7543 21.2926 24.927 20.875C25.0997 20.4574 25.1885 20.0098 25.1882 19.5579V13.4421C25.1885 12.9902 25.0997 12.5426 24.927 12.125C24.7543 11.7074 24.5009 11.328 24.1815 11.0083C23.862 10.6886 23.4827 10.4351 23.0652 10.2621C22.6477 10.089 22.2003 10 21.7483 10ZM13.6978 19.2873V13.7127L18.4904 16.5L13.6978 19.2873Z" fill="white"/>
</svg>
